# xmcd CD database file
#
# Track frame offsets:
#	187
#	26105
#	50672
#	75505
#	100685
#	124092
#	140472
#	163187
#	193342
#	221582
#
# Disc length: 3267 seconds
#
# Revision: 2
# Processed by: cddbd v1.5.2PL0 Copyright (c) Steve Scherf et al.
# Submitted via: CDex 1.70beta2
#
DISCID=8e0cc10a
DTITLE=Bill Evans_Sax - Starfish and The Moon
DYEAR=1997
DGENRE=Jazz
TTITLE0=Something In The Rose
TTITLE1=Starfish and The Moon
TTITLE2=Little Slow Poke
TTITLE3=I'll Miss You
TTITLE4=Whiskey Talk
TTITLE5=The Last Goodbye
TTITLE6=Red Dog
TTITLE7=It's Only History
TTITLE8=Big Blue Hat
TTITLE9=Shady Lady
EXTD=YEAR: 1997
EXTT0=
EXTT1=
EXTT2=
EXTT3=
EXTT4=
EXTT5=
EXTT6=
EXTT7=
EXTT8=
EXTT9=
PLAYORDER=
